<svg xmlns="http://www.w3.org/2000/svg" xmlns:xlink="http://www.w3.org/1999/xlink" width="1800" zoomAndPan="magnify" viewBox="0 0 1350 337.499995" height="450" preserveAspectRatio="xMidYMid meet" version="1.0"><defs><filter x="0%" y="0%" width="100%" height="100%" id="f6da8de12d"><feColorMatrix values="0 0 0 0 1 0 0 0 0 1 0 0 0 0 1 0 0 0 1 0" color-interpolation-filters="sRGB"/></filter><g/><mask id="a0c9a3897c"><g filter="url(#f6da8de12d)"><rect x="-135" width="1620" fill="#000000" y="-33.75" height="404.999994" fill-opacity="0.93"/></g></mask><clipPath id="ac2a0230b1"><rect x="0" width="988" y="0" height="295"/></clipPath><clipPath id="42e472e584"><path d="M 160.734375 150.945312 L 299.277344 150.945312 L 299.277344 302.96875 L 160.734375 302.96875 Z M 160.734375 150.945312 " clip-rule="nonzero"/></clipPath><clipPath id="3e86267251"><path d="M 39.175781 151 L 296.042969 151 L 296.042969 305 L 39.175781 305 Z M 39.175781 151 " clip-rule="nonzero"/></clipPath><clipPath id="f291e369ba"><path d="M 39.175781 150.945312 L 296.042969 150.945312 L 296.042969 305.175781 L 39.175781 305.175781 Z M 39.175781 150.945312 " clip-rule="nonzero"/></clipPath></defs><path stroke-linecap="butt" transform="matrix(0.564663, 0, 0, 0.564663, 26.395724, 25.43472)" fill="none" stroke-linejoin="miter" d="M 15.002678 15.002796 L 485.000576 15.002796 L 485.000576 485.000694 L 15.002678 485.000694 Z M 15.002678 15.002796 " stroke="#000000" stroke-width="21" stroke-opacity="1" stroke-miterlimit="4"/><g fill="#010101" fill-opacity="1"><g transform="translate(357.694134, 303.351492)"><g><path d="M 35.015625 -10.359375 L 12.65625 -10.359375 L 8.25 0 L -0.3125 0 L 19.8125 -44.734375 L 27.984375 -44.734375 L 48.1875 0 L 39.5 0 Z M 32.265625 -16.875 L 23.84375 -36.421875 L 15.46875 -16.875 Z M 32.265625 -16.875 "/></g></g></g><g fill="#010101" fill-opacity="1"><g transform="translate(403.191791, 303.351492)"><g><path d="M 6 -44.734375 L 25.5625 -44.734375 C 30.332031 -44.734375 34.570312 -43.804688 38.28125 -41.953125 C 41.988281 -40.097656 44.863281 -37.476562 46.90625 -34.09375 C 48.945312 -30.707031 49.96875 -26.796875 49.96875 -22.359375 C 49.96875 -17.929688 48.945312 -14.023438 46.90625 -10.640625 C 44.863281 -7.253906 41.988281 -4.632812 38.28125 -2.78125 C 34.570312 -0.925781 30.332031 0 25.5625 0 L 6 0 Z M 25.171875 -7.03125 C 28.453125 -7.03125 31.335938 -7.65625 33.828125 -8.90625 C 36.328125 -10.164062 38.25 -11.957031 39.59375 -14.28125 C 40.9375 -16.601562 41.609375 -19.296875 41.609375 -22.359375 C 41.609375 -25.429688 40.9375 -28.128906 39.59375 -30.453125 C 38.25 -32.773438 36.328125 -34.5625 33.828125 -35.8125 C 31.335938 -37.070312 28.453125 -37.703125 25.171875 -37.703125 L 14.3125 -37.703125 L 14.3125 -7.03125 Z M 25.171875 -7.03125 "/></g></g></g><g fill="#010101" fill-opacity="1"><g transform="translate(453.609859, 303.351492)"><g><path d="M 46.90625 -44.734375 L 27.421875 0 L 19.234375 0 L -0.3125 -44.734375 L 8.6875 -44.734375 L 23.578125 -10.21875 L 38.59375 -44.734375 Z M 46.90625 -44.734375 "/></g></g></g><g fill="#010101" fill-opacity="1"><g transform="translate(497.829491, 303.351492)"><g><path d="M 35.015625 -10.359375 L 12.65625 -10.359375 L 8.25 0 L -0.3125 0 L 19.8125 -44.734375 L 27.984375 -44.734375 L 48.1875 0 L 39.5 0 Z M 32.265625 -16.875 L 23.84375 -36.421875 L 15.46875 -16.875 Z M 32.265625 -16.875 "/></g></g></g><g fill="#010101" fill-opacity="1"><g transform="translate(543.327148, 303.351492)"><g><path d="M 45.75 -44.734375 L 45.75 0 L 38.921875 0 L 14.25 -30.296875 L 14.25 0 L 6 0 L 6 -44.734375 L 12.84375 -44.734375 L 37.515625 -14.4375 L 37.515625 -44.734375 Z M 45.75 -44.734375 "/></g></g></g><g fill="#010101" fill-opacity="1"><g transform="translate(592.722792, 303.351492)"><g><path d="M 26.71875 0.640625 C 22.195312 0.640625 18.113281 -0.347656 14.46875 -2.328125 C 10.832031 -4.304688 7.976562 -7.039062 5.90625 -10.53125 C 3.84375 -14.03125 2.8125 -17.972656 2.8125 -22.359375 C 2.8125 -26.753906 3.851562 -30.695312 5.9375 -34.1875 C 8.03125 -37.6875 10.894531 -40.425781 14.53125 -42.40625 C 18.175781 -44.382812 22.257812 -45.375 26.78125 -45.375 C 30.4375 -45.375 33.773438 -44.734375 36.796875 -43.453125 C 39.828125 -42.171875 42.390625 -40.316406 44.484375 -37.890625 L 39.109375 -32.84375 C 35.867188 -36.34375 31.882812 -38.09375 27.15625 -38.09375 C 24.09375 -38.09375 21.347656 -37.421875 18.921875 -36.078125 C 16.492188 -34.734375 14.597656 -32.867188 13.234375 -30.484375 C 11.867188 -28.097656 11.1875 -25.390625 11.1875 -22.359375 C 11.1875 -19.335938 11.867188 -16.632812 13.234375 -14.25 C 14.597656 -11.863281 16.492188 -10 18.921875 -8.65625 C 21.347656 -7.3125 24.09375 -6.640625 27.15625 -6.640625 C 31.882812 -6.640625 35.867188 -8.410156 39.109375 -11.953125 L 44.484375 -6.84375 C 42.390625 -4.40625 39.816406 -2.546875 36.765625 -1.265625 C 33.722656 0.00390625 30.375 0.640625 26.71875 0.640625 Z M 26.71875 0.640625 "/></g></g></g><g fill="#010101" fill-opacity="1"><g transform="translate(636.814611, 303.351492)"><g><path d="M 39.5625 -6.96875 L 39.5625 0 L 6 0 L 6 -44.734375 L 38.65625 -44.734375 L 38.65625 -37.765625 L 14.3125 -37.765625 L 14.3125 -26.140625 L 35.921875 -26.140625 L 35.921875 -19.296875 L 14.3125 -19.296875 L 14.3125 -6.96875 Z M 39.5625 -6.96875 "/></g></g></g><g fill="#010101" fill-opacity="1"><g transform="translate(677.264045, 303.351492)"><g><path d="M 6 -44.734375 L 25.5625 -44.734375 C 30.332031 -44.734375 34.570312 -43.804688 38.28125 -41.953125 C 41.988281 -40.097656 44.863281 -37.476562 46.90625 -34.09375 C 48.945312 -30.707031 49.96875 -26.796875 49.96875 -22.359375 C 49.96875 -17.929688 48.945312 -14.023438 46.90625 -10.640625 C 44.863281 -7.253906 41.988281 -4.632812 38.28125 -2.78125 C 34.570312 -0.925781 30.332031 0 25.5625 0 L 6 0 Z M 25.171875 -7.03125 C 28.453125 -7.03125 31.335938 -7.65625 33.828125 -8.90625 C 36.328125 -10.164062 38.25 -11.957031 39.59375 -14.28125 C 40.9375 -16.601562 41.609375 -19.296875 41.609375 -22.359375 C 41.609375 -25.429688 40.9375 -28.128906 39.59375 -30.453125 C 38.25 -32.773438 36.328125 -34.5625 33.828125 -35.8125 C 31.335938 -37.070312 28.453125 -37.703125 25.171875 -37.703125 L 14.3125 -37.703125 L 14.3125 -7.03125 Z M 25.171875 -7.03125 "/></g></g></g><g fill="#010101" fill-opacity="1"><g transform="translate(727.682101, 303.351492)"><g/></g></g><g fill="#010101" fill-opacity="1"><g transform="translate(742.954412, 303.351492)"><g><path d="M 37.703125 -23.265625 C 40.171875 -22.453125 42.128906 -21.097656 43.578125 -19.203125 C 45.023438 -17.304688 45.75 -14.953125 45.75 -12.140625 C 45.75 -8.265625 44.257812 -5.269531 41.28125 -3.15625 C 38.300781 -1.050781 33.957031 0 28.25 0 L 6 0 L 6 -44.734375 L 26.96875 -44.734375 C 32.25 -44.734375 36.316406 -43.695312 39.171875 -41.625 C 42.023438 -39.5625 43.453125 -36.722656 43.453125 -33.109375 C 43.453125 -30.890625 42.941406 -28.925781 41.921875 -27.21875 C 40.898438 -25.519531 39.492188 -24.203125 37.703125 -23.265625 Z M 14.3125 -38.21875 L 14.3125 -25.875 L 26.078125 -25.875 C 28.972656 -25.875 31.195312 -26.394531 32.75 -27.4375 C 34.300781 -28.488281 35.078125 -30.015625 35.078125 -32.015625 C 35.078125 -34.054688 34.300781 -35.597656 32.75 -36.640625 C 31.195312 -37.691406 28.972656 -38.21875 26.078125 -38.21875 Z M 27.734375 -6.515625 C 34.171875 -6.515625 37.390625 -8.664062 37.390625 -12.96875 C 37.390625 -17.269531 34.171875 -19.421875 27.734375 -19.421875 L 14.3125 -19.421875 L 14.3125 -6.515625 Z M 27.734375 -6.515625 "/></g></g></g><g fill="#010101" fill-opacity="1"><g transform="translate(789.218877, 303.351492)"><g><path d="M 6 -44.734375 L 14.3125 -44.734375 L 14.3125 0 L 6 0 Z M 6 -44.734375 "/></g></g></g><g fill="#010101" fill-opacity="1"><g transform="translate(807.238917, 303.351492)"><g><path d="M 47.09375 0 L 47.03125 -29.65625 L 32.34375 -5.109375 L 28.625 -5.109375 L 13.9375 -29.265625 L 13.9375 0 L 6 0 L 6 -44.734375 L 12.84375 -44.734375 L 30.609375 -15.078125 L 48.0625 -44.734375 L 54.890625 -44.734375 L 54.953125 0 Z M 47.09375 0 "/></g></g></g><g fill="#010101" fill-opacity="1"><g transform="translate(865.900254, 303.351492)"><g/></g></g><g fill="#010101" fill-opacity="1"><g transform="translate(881.172565, 303.351492)"><g><path d="M 39.5625 -6.96875 L 39.5625 0 L 6 0 L 6 -44.734375 L 38.65625 -44.734375 L 38.65625 -37.765625 L 14.3125 -37.765625 L 14.3125 -26.140625 L 35.921875 -26.140625 L 35.921875 -19.296875 L 14.3125 -19.296875 L 14.3125 -6.96875 Z M 39.5625 -6.96875 "/></g></g></g><g fill="#010101" fill-opacity="1"><g transform="translate(921.622022, 303.351492)"><g><path d="M 45.75 -44.734375 L 45.75 0 L 38.921875 0 L 14.25 -30.296875 L 14.25 0 L 6 0 L 6 -44.734375 L 12.84375 -44.734375 L 37.515625 -14.4375 L 37.515625 -44.734375 Z M 45.75 -44.734375 "/></g></g></g><g fill="#010101" fill-opacity="1"><g transform="translate(971.017666, 303.351492)"><g><path d="M 36.546875 -22.875 L 44.421875 -22.875 L 44.421875 -5.046875 C 42.117188 -3.210938 39.429688 -1.804688 36.359375 -0.828125 C 33.296875 0.148438 30.144531 0.640625 26.90625 0.640625 C 22.34375 0.640625 18.226562 -0.347656 14.5625 -2.328125 C 10.90625 -4.304688 8.03125 -7.039062 5.9375 -10.53125 C 3.851562 -14.03125 2.8125 -17.972656 2.8125 -22.359375 C 2.8125 -26.753906 3.851562 -30.695312 5.9375 -34.1875 C 8.03125 -37.6875 10.914062 -40.425781 14.59375 -42.40625 C 18.28125 -44.382812 22.425781 -45.375 27.03125 -45.375 C 30.78125 -45.375 34.1875 -44.753906 37.25 -43.515625 C 40.320312 -42.285156 42.898438 -40.476562 44.984375 -38.09375 L 39.75 -32.96875 C 36.34375 -36.382812 32.234375 -38.09375 27.421875 -38.09375 C 24.265625 -38.09375 21.460938 -37.429688 19.015625 -36.109375 C 16.566406 -34.785156 14.648438 -32.929688 13.265625 -30.546875 C 11.878906 -28.160156 11.1875 -25.429688 11.1875 -22.359375 C 11.1875 -19.378906 11.878906 -16.695312 13.265625 -14.3125 C 14.648438 -11.925781 16.566406 -10.050781 19.015625 -8.6875 C 21.460938 -7.320312 24.242188 -6.640625 27.359375 -6.640625 C 30.847656 -6.640625 33.910156 -7.410156 36.546875 -8.953125 Z M 36.546875 -22.875 "/></g></g></g><g fill="#010101" fill-opacity="1"><g transform="translate(1017.985039, 303.351492)"><g><path d="M 6 -44.734375 L 14.3125 -44.734375 L 14.3125 0 L 6 0 Z M 6 -44.734375 "/></g></g></g><g fill="#010101" fill-opacity="1"><g transform="translate(1036.005079, 303.351492)"><g><path d="M 45.75 -44.734375 L 45.75 0 L 38.921875 0 L 14.25 -30.296875 L 14.25 0 L 6 0 L 6 -44.734375 L 12.84375 -44.734375 L 37.515625 -14.4375 L 37.515625 -44.734375 Z M 45.75 -44.734375 "/></g></g></g><g fill="#010101" fill-opacity="1"><g transform="translate(1085.400724, 303.351492)"><g><path d="M 39.5625 -6.96875 L 39.5625 0 L 6 0 L 6 -44.734375 L 38.65625 -44.734375 L 38.65625 -37.765625 L 14.3125 -37.765625 L 14.3125 -26.140625 L 35.921875 -26.140625 L 35.921875 -19.296875 L 14.3125 -19.296875 L 14.3125 -6.96875 Z M 39.5625 -6.96875 "/></g></g></g><g fill="#010101" fill-opacity="1"><g transform="translate(1125.850181, 303.351492)"><g><path d="M 39.5625 -6.96875 L 39.5625 0 L 6 0 L 6 -44.734375 L 38.65625 -44.734375 L 38.65625 -37.765625 L 14.3125 -37.765625 L 14.3125 -26.140625 L 35.921875 -26.140625 L 35.921875 -19.296875 L 14.3125 -19.296875 L 14.3125 -6.96875 Z M 39.5625 -6.96875 "/></g></g></g><g fill="#010101" fill-opacity="1"><g transform="translate(1166.299591, 303.351492)"><g><path d="M 35.28125 0 L 26.140625 -13.09375 C 25.753906 -13.050781 25.175781 -13.03125 24.40625 -13.03125 L 14.3125 -13.03125 L 14.3125 0 L 6 0 L 6 -44.734375 L 24.40625 -44.734375 C 28.289062 -44.734375 31.671875 -44.09375 34.546875 -42.8125 C 37.421875 -41.539062 39.625 -39.710938 41.15625 -37.328125 C 42.6875 -34.941406 43.453125 -32.109375 43.453125 -28.828125 C 43.453125 -25.453125 42.628906 -22.550781 40.984375 -20.125 C 39.347656 -17.695312 37 -15.890625 33.9375 -14.703125 L 44.21875 0 Z M 35.078125 -28.828125 C 35.078125 -31.679688 34.140625 -33.875 32.265625 -35.40625 C 30.390625 -36.9375 27.644531 -37.703125 24.03125 -37.703125 L 14.3125 -37.703125 L 14.3125 -19.875 L 24.03125 -19.875 C 27.644531 -19.875 30.390625 -20.648438 32.265625 -22.203125 C 34.140625 -23.765625 35.078125 -25.972656 35.078125 -28.828125 Z M 35.078125 -28.828125 "/></g></g></g><g fill="#010101" fill-opacity="1"><g transform="translate(1210.647036, 303.351492)"><g><path d="M 6 -44.734375 L 14.3125 -44.734375 L 14.3125 0 L 6 0 Z M 6 -44.734375 "/></g></g></g><g fill="#010101" fill-opacity="1"><g transform="translate(1228.667122, 303.351492)"><g><path d="M 45.75 -44.734375 L 45.75 0 L 38.921875 0 L 14.25 -30.296875 L 14.25 0 L 6 0 L 6 -44.734375 L 12.84375 -44.734375 L 37.515625 -14.4375 L 37.515625 -44.734375 Z M 45.75 -44.734375 "/></g></g></g><g fill="#010101" fill-opacity="1"><g transform="translate(1278.062812, 303.351492)"><g><path d="M 36.546875 -22.875 L 44.421875 -22.875 L 44.421875 -5.046875 C 42.117188 -3.210938 39.429688 -1.804688 36.359375 -0.828125 C 33.296875 0.148438 30.144531 0.640625 26.90625 0.640625 C 22.34375 0.640625 18.226562 -0.347656 14.5625 -2.328125 C 10.90625 -4.304688 8.03125 -7.039062 5.9375 -10.53125 C 3.851562 -14.03125 2.8125 -17.972656 2.8125 -22.359375 C 2.8125 -26.753906 3.851562 -30.695312 5.9375 -34.1875 C 8.03125 -37.6875 10.914062 -40.425781 14.59375 -42.40625 C 18.28125 -44.382812 22.425781 -45.375 27.03125 -45.375 C 30.78125 -45.375 34.1875 -44.753906 37.25 -43.515625 C 40.320312 -42.285156 42.898438 -40.476562 44.984375 -38.09375 L 39.75 -32.96875 C 36.34375 -36.382812 32.234375 -38.09375 27.421875 -38.09375 C 24.265625 -38.09375 21.460938 -37.429688 19.015625 -36.109375 C 16.566406 -34.785156 14.648438 -32.929688 13.265625 -30.546875 C 11.878906 -28.160156 11.1875 -25.429688 11.1875 -22.359375 C 11.1875 -19.378906 11.878906 -16.695312 13.265625 -14.3125 C 14.648438 -11.925781 16.566406 -10.050781 19.015625 -8.6875 C 21.460938 -7.320312 24.242188 -6.640625 27.359375 -6.640625 C 30.847656 -6.640625 33.910156 -7.410156 36.546875 -8.953125 Z M 36.546875 -22.875 "/></g></g></g><g fill="#010101" fill-opacity="1"><g transform="translate(1325.038324, 303.351492)"><g/></g></g><g mask="url(#a0c9a3897c)"><g transform="matrix(1, 0, 0, 1, 351, 0)"><g clip-path="url(#ac2a0230b1)"><g fill="#000000" fill-opacity="1"><g transform="translate(0.703011, 222.485791)"><g><path d="M 150.484375 -141.265625 C 140.421875 -147.410156 129.742188 -152.300781 118.453125 -155.9375 C 107.171875 -159.570312 97.523438 -161.390625 89.515625 -161.390625 C 81.867188 -161.390625 75.804688 -159.988281 71.328125 -157.1875 C 66.847656 -154.394531 64.609375 -150.296875 64.609375 -144.890625 C 64.609375 -137.992188 67.828125 -132.726562 74.265625 -129.09375 C 80.703125 -125.457031 90.632812 -121.679688 104.0625 -117.765625 C 117.476562 -113.847656 128.519531 -109.929688 137.1875 -106.015625 C 145.863281 -102.097656 153.28125 -96.222656 159.4375 -88.390625 C 165.59375 -80.554688 168.671875 -70.207031 168.671875 -57.34375 C 168.671875 -44.84375 165.359375 -34.070312 158.734375 -25.03125 C 152.117188 -15.988281 143.03125 -9.132812 131.46875 -4.46875 C 119.90625 0.1875 106.757812 2.515625 92.03125 2.515625 C 76.175781 2.515625 60.601562 -0.28125 45.3125 -5.875 C 30.019531 -11.46875 16.78125 -19.113281 5.59375 -28.8125 L 23.21875 -64.890625 C 33.101562 -55.941406 44.476562 -48.765625 57.34375 -43.359375 C 70.207031 -37.953125 81.957031 -35.25 92.59375 -35.25 C 101.726562 -35.25 108.859375 -36.925781 113.984375 -40.28125 C 119.109375 -43.632812 121.671875 -48.484375 121.671875 -54.828125 C 121.671875 -59.859375 119.945312 -64.003906 116.5 -67.265625 C 113.050781 -70.535156 108.671875 -73.195312 103.359375 -75.25 C 98.046875 -77.300781 90.722656 -79.628906 81.390625 -82.234375 C 67.972656 -85.960938 57.019531 -89.691406 48.53125 -93.421875 C 40.039062 -97.148438 32.71875 -102.835938 26.5625 -110.484375 C 20.414062 -118.128906 17.34375 -128.296875 17.34375 -140.984375 C 17.34375 -152.722656 20.507812 -163.019531 26.84375 -171.875 C 33.1875 -180.738281 42.046875 -187.546875 53.421875 -192.296875 C 64.796875 -197.054688 78.035156 -199.4375 93.140625 -199.4375 C 106.566406 -199.4375 119.804688 -197.476562 132.859375 -193.5625 C 145.921875 -189.644531 157.484375 -184.425781 167.546875 -177.90625 Z M 150.484375 -141.265625 "/></g></g></g><g fill="#000000" fill-opacity="1"><g transform="translate(180.839397, 222.485791)"><g><path d="M 21.53125 -195.796875 L 170.625 -195.796875 L 170.625 -159.15625 L 65.734375 -159.15625 L 65.734375 -116.640625 L 160 -116.640625 L 160 -80 L 65.734375 -80 L 65.734375 -36.640625 L 173.703125 -36.640625 L 173.703125 0 L 21.53125 0 Z M 21.53125 -195.796875 "/></g></g></g><g fill="#000000" fill-opacity="1"><g transform="translate(369.646921, 222.485791)"><g><path d="M 156.921875 -195.796875 L 198.875 -195.796875 L 198.875 0 L 158.59375 0 L 63.78125 -125.875 L 63.78125 0 L 21.53125 0 L 21.53125 -195.796875 L 61.8125 -195.796875 L 156.921875 -69.375 Z M 156.921875 -195.796875 "/></g></g></g><g fill="#000000" fill-opacity="1"><g transform="translate(592.020247, 222.485791)"><g><path d="M 21.53125 -195.796875 L 170.625 -195.796875 L 170.625 -159.15625 L 65.734375 -159.15625 L 65.734375 -116.640625 L 160 -116.640625 L 160 -80 L 65.734375 -80 L 65.734375 -36.640625 L 173.703125 -36.640625 L 173.703125 0 L 21.53125 0 Z M 21.53125 -195.796875 "/></g></g></g><g fill="#000000" fill-opacity="1"><g transform="translate(780.827807, 222.485791)"><g><path d="M 141.8125 0 L 110.765625 -55.9375 L 65.734375 -55.9375 L 65.734375 0 L 21.53125 0 L 21.53125 -195.796875 L 106.578125 -195.796875 C 132.117188 -195.796875 151.882812 -189.875 165.875 -178.03125 C 179.863281 -166.195312 186.859375 -149.460938 186.859375 -127.828125 C 186.859375 -112.722656 183.734375 -99.804688 177.484375 -89.078125 C 171.234375 -78.359375 162.140625 -70.203125 150.203125 -64.609375 L 191.890625 0 Z M 65.734375 -92.859375 L 106.578125 -92.859375 C 118.878906 -92.859375 128.335938 -95.703125 134.953125 -101.390625 C 141.578125 -107.078125 144.890625 -115.425781 144.890625 -126.4375 C 144.890625 -137.25 141.578125 -145.40625 134.953125 -150.90625 C 128.335938 -156.40625 118.878906 -159.15625 106.578125 -159.15625 L 65.734375 -159.15625 Z M 65.734375 -92.859375 "/></g></g></g></g></g></g><g clip-path="url(#42e472e584)"><path stroke-linecap="butt" transform="matrix(0.679413, 0, 0, 0.679303, 161.137894, 150.943647)" fill="none" stroke-linejoin="miter" d="M 328.360822 142.611799 C 306.535913 141.703239 285.147961 139.213326 265.151376 135.067304 C 248.368733 131.588326 234.662046 126.959273 220.380414 113.95192 C 213.987026 108.126788 201.016268 90.220115 190.356789 70.956352 C 183.583938 58.7138 179.547824 47.667326 171.918305 37.765177 C 160.367661 22.773944 139.261433 4.620004 113.981104 6.08635 C 85.941039 7.707956 70.038062 35.516779 37.605418 62.658558 C 27.532383 71.088611 16.999392 78.621605 6.000695 85.286291 L 6.000695 219.551842 L 329.412972 219.551842 Z M 328.360822 142.611799 " stroke="#000000" stroke-width="12" stroke-opacity="1" stroke-miterlimit="10"/></g><g clip-path="url(#3e86267251)"><path fill="#000000" d="M 40.277344 187.785156 C 49.300781 185.90625 56.964844 181.683594 63.242188 174.914062 C 65.710938 172.246094 67.988281 169.023438 70.777344 166.160156 C 74.742188 162.085938 78.515625 158.972656 81.898438 156.890625 C 86.453125 154.089844 90.589844 152.480469 94.460938 151.742188 C 99.351562 150.808594 104.925781 151.117188 111.683594 153.289062 C 121.964844 156.589844 132.214844 164.824219 142.183594 176.972656 C 150.703125 187.351562 160.816406 203.78125 164.789062 209.410156 C 167.257812 212.90625 171.140625 217.761719 175.554688 221.769531 C 179.597656 225.4375 184.191406 228.496094 188.113281 230.523438 C 209.890625 241.773438 247.820312 252.902344 280.335938 252.148438 C 301.867188 251.648438 350.929688 252.457031 386.910156 252.664062 C 386.910156 269.828125 386.910156 286.988281 386.910156 304.152344 C 386.910156 304.152344 39.234375 305.128906 39.917969 304.152344 C 40.597656 303.175781 40.277344 187.785156 40.277344 187.785156 Z M 40.277344 187.785156 " fill-opacity="1" fill-rule="evenodd"/></g><g clip-path="url(#f291e369ba)"><path stroke-linecap="butt" transform="matrix(0.681243, 0, 0, 0.682617, 39.575046, 150.904168)" fill="none" stroke-linejoin="miter" d="M 1.030906 54.028815 C 14.276454 51.27631 25.52657 45.090329 34.741114 35.173302 C 38.365004 31.26486 41.707929 26.543829 45.802007 22.349264 C 51.622021 16.380736 57.161069 11.819934 62.126716 8.769862 C 68.812565 4.666856 74.884875 2.309202 80.567272 1.227657 C 87.746245 -0.140012 95.928669 0.312063 105.848495 3.493752 C 120.940393 8.329232 135.986419 20.392182 150.619597 38.18904 C 163.125459 53.393621 177.970795 77.462297 183.802277 85.708365 C 187.426167 90.829969 193.125767 97.942989 199.605191 103.814235 C 205.539885 109.187627 212.283074 113.668315 218.040014 116.638273 C 250.007085 133.118964 305.684262 149.422258 353.414109 148.317823 C 385.019938 147.585348 457.039026 148.769898 509.854935 149.073188 C 509.854935 174.217687 509.854935 199.356463 509.854935 224.500961 C 509.854935 224.500961 -0.500073 225.931577 0.503377 224.500961 C 1.501094 223.070346 1.030906 54.028815 1.030906 54.028815 Z M 1.030906 54.028815 " stroke="#000000" stroke-width="1" stroke-opacity="1" stroke-miterlimit="10"/></g></svg>